<?xml version="1.0" standalone="no"?>
<!DOCTYPE svg PUBLIC "-//W3C//DTD SVG 20010904//EN"
 "http://www.w3.org/TR/2001/REC-SVG-20010904/DTD/svg10.dtd">
<svg version="1.0" xmlns="http://www.w3.org/2000/svg"
 width="710.000000pt" height="710.000000pt" viewBox="0 0 710.000000 710.000000"
 preserveAspectRatio="xMidYMid meet">
<metadata>
Created by potrace 1.11, written by Peter Selinger 2001-2013
</metadata>
<g transform="translate(0.000000,710.000000) scale(0.100000,-0.100000)"
fill="#000000" stroke="none">
<path d="M4350 7090 c-19 -4 -78 -15 -130 -25 -193 -36 -520 -148 -704 -243
-167 -86 -309 -209 -375 -327 -29 -51 -64 -166 -120 -395 -25 -100 -46 -155
-107 -277 -65 -129 -76 -157 -70 -185 3 -18 41 -84 83 -145 l76 -113 -69 -67
c-53 -51 -73 -79 -83 -113 -19 -63 -21 -150 -5 -234 8 -39 14 -87 14 -108 0
-38 -6 -46 -150 -226 -36 -44 -101 -138 -144 -209 -85 -136 -231 -356 -250
-376 -7 -7 -70 -82 -141 -167 -139 -167 -157 -187 -195 -213 -91 -63 -200 45
-355 352 l-67 133 1 97 c2 148 10 219 32 307 l21 80 102 23 c137 31 194 54
281 112 127 85 143 135 39 123 -64 -8 -218 -48 -320 -83 -45 -16 -86 -26 -91
-22 -4 3 -24 26 -43 51 -36 46 -80 89 -92 90 -14 0 -19 -41 -9 -77 6 -20 9
-38 8 -39 -1 -1 -28 15 -59 36 -31 21 -77 46 -102 55 -45 17 -45 17 -111 -11
-85 -37 -105 -56 -105 -99 0 -31 -3 -35 -37 -44 -21 -5 -49 -11 -63 -13 -16
-2 -26 -11 -31 -28 -7 -30 4 -55 44 -97 23 -24 27 -34 16 -38 -8 -2 -125 -38
-260 -79 -255 -78 -383 -121 -434 -149 -29 -15 -28 -15 45 -11 94 6 269 42
489 98 l169 44 11 -45 c7 -25 38 -100 71 -166 38 -81 66 -154 80 -217 108
-472 254 -795 443 -978 121 -117 236 -154 363 -117 152 44 371 186 583 380 90
83 252 252 302 318 29 37 55 67 59 67 8 0 27 -16 129 -108 93 -84 123 -107
233 -184 259 -181 452 -345 464 -395 4 -14 -13 -82 -41 -171 l-47 -148 -77
-28 c-106 -39 -168 -74 -466 -264 -342 -217 -353 -223 -429 -221 -120 3 -292
81 -398 180 -46 43 -48 47 -38 75 16 40 4 91 -25 110 -19 12 -40 14 -107 9
-101 -8 -144 -17 -239 -51 -152 -54 -421 -208 -456 -261 -14 -20 -10 -26 71
-104 96 -92 111 -118 131 -224 15 -79 62 -209 94 -261 23 -38 35 -40 231 -38
157 2 173 4 455 71 251 59 327 72 467 80 108 6 118 5 124 -12 12 -30 -85 -110
-311 -261 -237 -157 -299 -209 -331 -279 -22 -46 -24 -63 -24 -209 0 -130 5
-181 25 -285 35 -171 86 -363 152 -565 l55 -169 1576 7 c868 3 1613 8 1657 10
44 2 141 5 216 6 79 1 146 7 159 13 49 25 188 513 285 999 46 234 90 493 110
653 4 28 9 61 12 75 3 14 7 147 10 296 l5 271 -72 199 c-39 110 -106 294 -147
409 -74 204 -78 213 -154 313 -88 116 -85 111 -230 537 -55 165 -121 352 -146
415 -206 528 -449 771 -936 939 -137 47 -229 67 -347 76 -195 14 -275 25 -299
43 -32 23 -40 56 -45 166 l-3 89 101 101 c147 146 227 276 291 470 57 172 69
251 69 441 -1 183 -13 276 -50 397 -30 93 -62 135 -112 144 -35 7 -35 8 -12
15 34 10 -145 9 -190 -1z"/>
</g>
</svg>
